<svg width="50" height="50" viewBox="0 0 50 50" fill="none" xmlns="http://www.w3.org/2000/svg">
<circle cx="25" cy="25" r="25" fill="#FCD32C"/>
<path d="M31 30.2003C33.2459 29.9773 35 28.0824 35 25.7778C35 23.1049 32.5452 21.0025 29.9198 21.3785C29.9155 21.3791 29.9113 21.3769 29.9093 21.373C28.9052 19.3728 26.8351 18 24.4444 18C21.2597 18 18.644 20.4361 18.3591 23.5465C18.3586 23.5516 18.3542 23.5556 18.349 23.5556C16.5271 23.554 15 25.0606 15 26.8889C15 28.7298 16.4924 30.2222 18.3333 30.2222H19" stroke="#1D1D1D" stroke-width="1.5" stroke-linecap="round"/>
<path d="M22.5 28.5L24.6464 26.3536C24.8417 26.1583 25.1583 26.1583 25.3535 26.3536L27.5 28.5" stroke="#1D1D1D" stroke-width="1.5" stroke-linecap="round"/>
<path d="M25 27L25 33" stroke="#1D1D1D" stroke-width="1.5" stroke-linecap="round"/>
</svg>
