<svg width="178" height="98" viewBox="0 0 178 98" fill="none" xmlns="http://www.w3.org/2000/svg">
<circle cx="49" cy="49" r="49" fill="#F2F2F2"/>
<path d="M52.8698 45.8608C52.6821 45.8407 52.5464 45.6722 52.5666 45.4846L53.9597 32.5466C53.9949 32.2194 53.5928 32.0365 53.3692 32.278L38.4739 48.3683C37.9967 48.8838 38.3109 49.7227 39.0093 49.7977L46.1252 50.562C46.3128 50.5821 46.4485 50.7506 46.4283 50.9382L45.0353 63.8762C45.0001 64.2034 45.4022 64.3863 45.6257 64.1448L60.521 48.0545C60.9982 47.539 60.684 46.7001 59.9857 46.6251L52.8698 45.8608Z" fill="#FA4B24" stroke="#FA4B24" stroke-width="2.5625"/>
<circle cx="129" cy="49" r="48.5" fill="#1D1D1D" stroke="white"/>
<circle cx="137.896" cy="36.3978" r="4.27083" fill="white" stroke="white" stroke-width="1.5"/>
<circle cx="117.396" cy="48.3568" r="4.27083" fill="white" stroke="white" stroke-width="1.5"/>
<path d="M133.625 38.9478L121.667 45.7727" stroke="white" stroke-width="1.5" stroke-linecap="round" stroke-linejoin="round"/>
<path d="M120.812 51.7441L133.625 59.4221" stroke="white" stroke-width="1.5" stroke-linecap="round" stroke-linejoin="round"/>
<circle cx="137.896" cy="62.0228" r="4.27083" fill="white" stroke="white" stroke-width="1.5"/>
</svg>
