<svg width="178" height="98" viewBox="0 0 178 98" fill="none" xmlns="http://www.w3.org/2000/svg">
<circle cx="49" cy="49" r="49" fill="#F2F2F2"/>
<path d="M52.8698 45.8607C52.6821 45.8405 52.5464 45.6721 52.5666 45.4845L53.9597 32.5464C53.9949 32.2193 53.5928 32.0364 53.3692 32.2779L38.4739 48.3682C37.9967 48.8837 38.3109 49.7226 39.0093 49.7976L46.1252 50.5619C46.3128 50.582 46.4485 50.7504 46.4283 50.938L45.0353 63.8761C45.0001 64.2032 45.4022 64.3861 45.6257 64.1447L60.521 48.0544C60.9982 47.5389 60.684 46.7 59.9857 46.625L52.8698 45.8607Z" fill="#FA4B24" stroke="#FA4B24" stroke-width="2.5625"/>
<circle cx="129" cy="49" r="48.5" fill="#FA4B24" stroke="white"/>
<circle cx="137.896" cy="36.398" r="4.27083" fill="white" stroke="white" stroke-width="1.5"/>
<circle cx="117.396" cy="48.3563" r="4.27083" fill="white" stroke="white" stroke-width="1.5"/>
<path d="M133.625 38.9478L121.667 45.7726" stroke="white" stroke-width="1.5" stroke-linecap="round" stroke-linejoin="round"/>
<path d="M120.812 51.7444L133.625 59.4224" stroke="white" stroke-width="1.5" stroke-linecap="round" stroke-linejoin="round"/>
<circle cx="137.896" cy="62.023" r="4.27083" fill="white" stroke="white" stroke-width="1.5"/>
</svg>
