<svg width="41" height="41" viewBox="0 0 41 41" fill="none" xmlns="http://www.w3.org/2000/svg">
<circle cx="5.8156" cy="5.8156" r="5.8156" transform="matrix(-1 0 0 1 26.6793 8.54187)" stroke="#FA4B24" stroke-width="1.5"/>
<path d="M10.6861 28.8017C10.6861 27.5508 11.4725 26.435 12.6505 26.0143V26.0143C17.9615 24.1175 23.7654 24.1175 29.0764 26.0143V26.0143C30.2544 26.435 31.0408 27.5508 31.0408 28.8017V30.7143C31.0408 32.4407 29.5117 33.7669 27.8026 33.5227L27.2328 33.4413C23.008 32.8378 18.7189 32.8378 14.4941 33.4413L13.9243 33.5227C12.2152 33.7669 10.6861 32.4407 10.6861 30.7143V28.8017Z" stroke="#FA4B24" stroke-width="1.5"/>
<path d="M29.5869 20.3338C32.1105 20.3338 34.1563 18.288 34.1563 15.7643C34.1563 13.2407 32.1105 11.1949 29.5869 11.1949" stroke="#FA4B24" stroke-width="1.5" stroke-linecap="round"/>
<path d="M34.5913 30.7585L35.0391 30.8224C36.3819 31.0143 37.5833 29.9723 37.5833 28.6158V27.1131C37.5833 26.1302 36.9655 25.2535 36.0399 24.9229C35.1166 24.5932 34.1744 24.3364 33.2216 24.1526" stroke="#FA4B24" stroke-width="1.5" stroke-linecap="round"/>
<path d="M11.413 20.3338C8.88935 20.3338 6.84356 18.288 6.84356 15.7643C6.84356 13.2407 8.88935 11.1949 11.413 11.1949" stroke="#FA4B24" stroke-width="1.5" stroke-linecap="round"/>
<path d="M6.40849 30.7585L5.96077 30.8224C4.61794 31.0143 3.41652 29.9723 3.41652 28.6158V27.1131C3.41652 26.1302 4.03436 25.2535 4.95994 24.9229C5.88321 24.5932 6.82543 24.3364 7.77822 24.1526" stroke="#FA4B24" stroke-width="1.5" stroke-linecap="round"/>
</svg>
