<svg width="34" height="34" viewBox="0 0 34 34" fill="none" xmlns="http://www.w3.org/2000/svg">
<path d="M27.0046 28.6426C24.236 31.4112 17.1457 28.8097 11.168 22.832C5.19028 16.8543 2.5888 9.76405 5.35741 6.99543L7.18033 5.17251C8.4388 3.91405 10.5124 3.94731 11.8119 5.24681L14.6355 8.07035C15.935 9.36985 15.9682 11.4435 14.7098 12.702L14.3182 13.0935C13.6388 13.773 13.5723 14.8691 14.2036 15.6341C14.8126 16.3721 15.4691 17.1072 16.181 17.819C16.8928 18.5309 17.6279 19.1874 18.3659 19.7964C19.1309 20.4277 20.227 20.3612 20.9065 19.6818L21.298 19.2902C22.5565 18.0318 24.6301 18.065 25.9296 19.3645L28.7532 22.1881C30.0527 23.4876 30.086 25.5612 28.8275 26.8197L27.0046 28.6426Z" stroke="#1D1D1D" stroke-width="2.125"/>
</svg>
