<svg width="167" height="26" viewBox="0 0 167 26" fill="none" xmlns="http://www.w3.org/2000/svg">
<path d="M63.0145 17.4678V9.86452H65.8168C66.3309 9.86452 66.7745 9.95504 67.1474 10.1361C67.5239 10.3171 67.8136 10.576 68.0163 10.9127C68.2227 11.2458 68.3259 11.6386 68.3259 12.0912C68.3259 12.4714 68.2426 12.8081 68.0761 13.1013C67.9095 13.391 67.6742 13.6281 67.37 13.8128C67.0659 13.9974 66.7111 14.1205 66.3056 14.1821L68.6789 17.4678H67.4298L65.1923 14.3124H64.0355V17.4678H63.0145ZM64.0355 13.438H65.6213C66.1499 13.438 66.5608 13.324 66.8541 13.0959C67.151 12.8678 67.2994 12.5456 67.2994 12.1292C67.2994 11.702 67.1691 11.3653 66.9084 11.1191C66.6477 10.8729 66.2531 10.7498 65.7245 10.7498H64.0355V13.438ZM70.1531 17.4678V9.86452H74.9215V10.7769H71.1741V13.0416H74.4381V13.916H71.1741V16.55H74.954V17.4678H70.1531ZM76.7296 17.4678V9.86452H77.7506V17.4678H76.7296ZM81.2723 17.4678V10.8041H79.0945V9.86452H84.4711V10.8041H82.2933V17.4678H81.2723ZM85.8094 17.4678V9.86452H90.5777V10.7769H86.8304V13.0416H90.0944V13.916H86.8304V16.55H90.6103V17.4678H85.8094ZM92.3858 17.4678V9.86452H95.1882C95.7023 9.86452 96.1458 9.95504 96.5188 10.1361C96.8953 10.3171 97.185 10.576 97.3877 10.9127C97.5941 11.2458 97.6973 11.6386 97.6973 12.0912C97.6973 12.4714 97.614 12.8081 97.4474 13.1013C97.2809 13.391 97.0456 13.6281 96.7414 13.8128C96.4373 13.9974 96.0825 14.1205 95.677 14.1821L98.0503 17.4678H96.8012L94.5636 14.3124H93.4069V17.4678H92.3858ZM93.4069 13.438H94.9927C95.5213 13.438 95.9322 13.324 96.2255 13.0959C96.5224 12.8678 96.6708 12.5456 96.6708 12.1292C96.6708 11.702 96.5405 11.3653 96.2798 11.1191C96.0191 10.8729 95.6245 10.7498 95.0959 10.7498H93.4069V13.438ZM102.927 17.6307C102.358 17.6307 101.832 17.5311 101.346 17.332C100.865 17.1292 100.443 16.8487 100.081 16.4902C99.7226 16.1318 99.4438 15.7118 99.2446 15.2302C99.0455 14.7487 98.9459 14.2273 98.9459 13.6661C98.9459 13.1013 99.0455 12.5782 99.2446 12.0966C99.4438 11.6151 99.7226 11.1951 100.081 10.8367C100.443 10.4782 100.865 10.1994 101.346 10.0003C101.832 9.80116 102.358 9.70159 102.927 9.70159C103.492 9.70159 104.015 9.80297 104.496 10.0057C104.978 10.2085 105.4 10.4909 105.762 10.8529C106.124 11.215 106.404 11.6368 106.604 12.1183C106.806 12.5963 106.908 13.1122 106.908 13.6661C106.908 14.2273 106.806 14.7487 106.604 15.2302C106.404 15.7118 106.124 16.1318 105.762 16.4902C105.4 16.8487 104.978 17.1292 104.496 17.332C104.015 17.5311 103.492 17.6307 102.927 17.6307ZM102.927 16.6586C103.336 16.6586 103.716 16.588 104.067 16.4468C104.422 16.3056 104.732 16.1046 104.996 15.8439C105.26 15.5796 105.467 15.2628 105.615 14.8935C105.767 14.5242 105.843 14.1151 105.843 13.6661C105.843 13.0615 105.713 12.5347 105.452 12.0858C105.195 11.6368 104.846 11.2892 104.404 11.043C103.962 10.7932 103.47 10.6683 102.927 10.6683C102.518 10.6683 102.136 10.7407 101.781 10.8855C101.43 11.0267 101.12 11.2295 100.852 11.4938C100.588 11.7545 100.382 12.0695 100.233 12.4388C100.085 12.8044 100.01 13.2136 100.01 13.6661C100.01 14.2672 100.139 14.7922 100.396 15.2411C100.657 15.6901 101.008 16.0394 101.45 16.2893C101.891 16.5355 102.384 16.6586 102.927 16.6586ZM110.354 17.4678L107.389 9.86452H108.541L110.892 16.0666L113.146 9.86452H114.265L111.397 17.4678H110.354ZM115.382 17.4678V9.86452H116.403V17.4678H115.382ZM121.891 17.6307C121.105 17.6307 120.417 17.4678 119.827 17.1419C119.241 16.8124 118.784 16.3508 118.459 15.757C118.136 15.1596 117.975 14.4627 117.975 13.6661C117.975 13.0905 118.071 12.5619 118.263 12.0803C118.455 11.5952 118.727 11.1752 119.078 10.8204C119.429 10.4655 119.844 10.1904 120.321 9.99486C120.803 9.79935 121.328 9.70159 121.896 9.70159C122.458 9.70159 122.948 9.7722 123.368 9.9134C123.788 10.051 124.15 10.2483 124.454 10.5054L123.911 11.3417C123.665 11.1209 123.379 10.9561 123.053 10.8475C122.727 10.7389 122.367 10.6846 121.972 10.6846C121.527 10.6846 121.123 10.7534 120.761 10.891C120.399 11.0285 120.09 11.2277 119.833 11.4884C119.579 11.7454 119.384 12.0568 119.246 12.4225C119.109 12.7882 119.04 13.1991 119.04 13.6553C119.04 14.2853 119.161 14.8229 119.404 15.2683C119.65 15.7136 119.997 16.0539 120.446 16.2893C120.895 16.521 121.426 16.6368 122.038 16.6368C122.432 16.6368 122.811 16.5789 123.173 16.4631C123.538 16.3436 123.88 16.1499 124.199 15.882L124.677 16.7509C124.304 17.0442 123.886 17.265 123.422 17.4135C122.963 17.5583 122.452 17.6307 121.891 17.6307ZM126.021 17.4678V9.86452H127.042V12.9547H130.953V9.86452H131.974V17.4678H130.953V13.8942H127.042V17.4678H126.021ZM138.76 17.6307C138.282 17.6307 137.861 17.5384 137.495 17.3537C137.129 17.1655 136.841 16.9102 136.631 16.588C136.425 16.2621 136.322 15.8892 136.322 15.4692C136.322 15.1542 136.396 14.8573 136.545 14.5785C136.693 14.2998 136.903 14.0517 137.175 13.8345C137.45 13.6136 137.779 13.4326 138.163 13.2914C137.924 13.0561 137.736 12.8443 137.598 12.656C137.461 12.4641 137.363 12.2776 137.305 12.0966C137.247 11.9156 137.218 11.7165 137.218 11.4992C137.218 11.1697 137.308 10.8692 137.49 10.5977C137.674 10.3225 137.919 10.1053 138.223 9.94598C138.53 9.78306 138.867 9.70159 139.233 9.70159C139.62 9.70159 139.966 9.77763 140.27 9.92969C140.574 10.0818 140.813 10.2918 140.987 10.5597C141.164 10.8276 141.253 11.1354 141.253 11.4829C141.253 11.8921 141.105 12.2614 140.808 12.5908C140.511 12.9167 140.08 13.2081 139.515 13.4652L141.28 15.2737C141.49 15.0058 141.686 14.6962 141.867 14.345C142.051 13.9902 142.222 13.5756 142.377 13.1013L143.208 13.4435C143.107 13.7367 142.986 14.03 142.844 14.3233C142.703 14.6129 142.546 14.8917 142.372 15.1596C142.202 15.4239 142.026 15.6665 141.845 15.8874L143.339 17.4678H142.127L141.253 16.5554C140.895 16.8993 140.498 17.1655 140.064 17.3537C139.633 17.5384 139.198 17.6307 138.76 17.6307ZM138.815 16.7618C139.159 16.7618 139.488 16.693 139.803 16.5554C140.118 16.4142 140.411 16.206 140.683 15.9308L138.706 13.8834C138.253 14.0354 137.904 14.2491 137.658 14.5242C137.415 14.7958 137.294 15.1035 137.294 15.4475C137.294 15.8494 137.43 16.1698 137.701 16.4087C137.976 16.6441 138.348 16.7618 138.815 16.7618ZM138.983 12.933C139.432 12.7664 139.769 12.5655 139.993 12.3301C140.221 12.0948 140.335 11.8305 140.335 11.5372C140.335 11.2403 140.234 10.996 140.031 10.8041C139.828 10.6122 139.568 10.5162 139.249 10.5162C138.938 10.5162 138.675 10.6104 138.462 10.7986C138.252 10.9833 138.147 11.2204 138.147 11.5101C138.147 11.7454 138.208 11.9681 138.331 12.1781C138.458 12.3845 138.675 12.6361 138.983 12.933ZM147.522 17.4678V9.86452H148.543V16.5282H151.943V17.4678H147.522ZM152.487 17.4678L155.479 9.86452H156.538L159.623 17.4678H158.472L157.717 15.5615H154.328L153.606 17.4678H152.487ZM154.616 14.6709H157.418L155.984 11.1299L154.616 14.6709ZM160.781 17.4678V9.86452H163.279C163.993 9.86452 164.57 10.0274 165.012 10.3533C165.457 10.6755 165.68 11.1516 165.68 11.7816C165.68 12.0242 165.62 12.2577 165.501 12.4822C165.381 12.7031 165.227 12.8968 165.039 13.0633C164.854 13.2299 164.662 13.3475 164.463 13.4163C164.88 13.5394 165.229 13.7693 165.511 14.106C165.798 14.4428 165.941 14.8609 165.941 15.3606C165.941 15.7697 165.837 16.1318 165.631 16.4468C165.428 16.7618 165.137 17.0116 164.757 17.1962C164.38 17.3773 163.933 17.4678 163.415 17.4678H160.781ZM161.802 16.6314H163.231C163.792 16.6314 164.208 16.5228 164.48 16.3056C164.755 16.0883 164.892 15.7552 164.892 15.3063C164.892 14.8682 164.753 14.5351 164.474 14.307C164.199 14.0753 163.768 13.9594 163.182 13.9594H161.802V16.6314ZM161.802 13.1556H163.111C163.426 13.1556 163.701 13.105 163.937 13.0036C164.172 12.9022 164.353 12.7574 164.48 12.5691C164.61 12.3772 164.675 12.1473 164.675 11.8794C164.675 11.4956 164.538 11.2023 164.262 10.9996C163.991 10.7968 163.602 10.6954 163.095 10.6954H161.802V13.1556Z" fill="black"/>
<rect width="24.439" height="25.1463" transform="translate(0 0.646484)" fill="#1437AD"/>
<path d="M7.74597 18.7197V7.31485H12.5849C13.4756 7.31485 14.2522 7.45334 14.9148 7.73031C15.5828 8.00729 16.0987 8.41189 16.4626 8.94412C16.8319 9.47091 17.0165 10.1118 17.0165 10.8667C17.0165 11.4206 16.9188 11.9067 16.7232 12.3248C16.5277 12.743 16.267 13.096 15.9412 13.3839C15.6153 13.6717 15.2569 13.8971 14.8659 14.06L17.6845 18.7197H13.8069L11.6725 14.7932H11.0371V18.7197H7.74597ZM11.0371 12.2027H12.2428C12.6935 12.2027 13.0465 12.1212 13.3018 11.9583C13.5625 11.7953 13.6928 11.5075 13.6928 11.0948C13.6928 10.6766 13.5625 10.3887 13.3018 10.2312C13.0465 10.0683 12.6989 9.98685 12.259 9.98685H11.0371V12.2027Z" fill="#F3F3F3"/>
<rect width="24.439" height="25.1463" transform="translate(27.1545 0.646484)" fill="#F3F3F3"/>
<path d="M35.9585 18.7197V7.31485H39.2496V15.7219H43.5672V18.7197H35.9585Z" fill="#161616"/>
</svg>
